<svg xmlns="http://www.w3.org/2000/svg" viewBox="0 0 32 32">
  <rect width="32" height="32" rx="6" fill="#fafcfe"/>
  <g fill="#1a1a1a"><path d="M13.24 23L13.24 23L13.24 22.64Q13.82 22.60 14.11 22.50Q14.40 22.39 14.50 22.06Q14.59 21.74 14.59 21.09L14.59 21.09L14.59 12.16Q14.59 11.50 14.50 11.18Q14.40 10.87 14.10 10.75Q13.80 10.63 13.24 10.62L13.24 10.62L13.24 10.26Q13.73 10.27 14.51 10.29Q15.30 10.31 16.07 10.31L16.07 10.31Q16.90 10.31 17.63 10.29Q18.36 10.27 18.81 10.26L18.81 10.26L18.81 10.62Q18.23 10.63 17.93 10.75Q17.64 10.87 17.55 11.18Q17.46 11.50 17.46 12.16L17.46 12.16L17.46 21.09Q17.46 21.74 17.55 22.06Q17.65 22.39 17.94 22.50Q18.23 22.60 18.81 22.64L18.81 22.64L18.81 23Q18.36 22.96 17.63 22.95Q16.90 22.95 16.07 22.95L16.07 22.95Q15.30 22.95 14.51 22.95Q13.73 22.96 13.24 23ZM5.61 23L5.61 23L5.61 22.64Q6.19 22.60 6.48 22.50Q6.76 22.39 6.86 22.06Q6.96 21.74 6.96 21.09L6.96 21.09L6.96 12.16Q6.96 11.50 6.86 11.18Q6.76 10.87 6.47 10.75Q6.17 10.63 5.61 10.62L5.61 10.62L5.61 10.26Q6.08 10.27 6.83 10.29Q7.57 10.31 8.46 10.31L8.46 10.31Q9.21 10.31 9.95 10.29Q10.69 10.27 11.17 10.26L11.17 10.26L11.17 10.62Q10.60 10.63 10.30 10.75Q10.00 10.87 9.91 11.18Q9.82 11.50 9.82 12.16L9.82 12.16L9.82 21.09Q9.82 21.74 9.92 22.06Q10.02 22.39 10.31 22.50Q10.60 22.60 11.17 22.64L11.17 22.64L11.17 23Q10.69 22.96 9.95 22.95Q9.21 22.95 8.46 22.95L8.46 22.95Q7.57 22.95 6.83 22.95Q6.08 22.96 5.61 23ZM15.76 16.77L8.65 16.77L8.65 16.41L15.76 16.41L15.76 16.77Z"/></g>
  <g fill="#89BBdf"><path d="M17.89 24.27L17.89 24.27Q18.00 24.34 18.15 24.37Q18.29 24.41 18.57 24.41L18.57 24.41Q19.23 24.41 19.66 24.01Q20.09 23.61 20.09 22.86L20.09 22.86Q20.09 22.40 19.92 21.94Q19.75 21.48 19.31 20.89L19.31 20.89Q18.96 20.41 18.65 19.90Q18.34 19.40 18.34 18.71L18.34 18.71Q18.34 18.07 18.65 17.59Q18.96 17.12 19.50 16.85Q20.03 16.58 20.66 16.58L20.66 16.58Q21.09 16.58 21.52 16.69Q21.93 16.79 22.21 17.07Q22.49 17.34 22.49 17.89L22.49 17.89Q22.49 18.02 22.42 18.21Q22.36 18.39 22.20 18.53Q22.05 18.66 21.80 18.66L21.80 18.66Q21.56 18.66 21.38 18.49Q21.20 18.32 21.20 18.04L21.20 18.04Q21.20 17.77 21.31 17.52Q21.43 17.27 21.62 17.03L21.62 17.03Q21.34 16.85 20.87 16.85L20.87 16.85Q20.32 16.85 19.94 17.23Q19.57 17.60 19.57 18.27L19.57 18.27Q19.57 18.62 19.67 18.88Q19.77 19.14 19.98 19.43Q20.18 19.71 20.46 20.15L20.46 20.15Q20.84 20.72 21.09 21.25Q21.35 21.77 21.35 22.36L21.35 22.36Q21.35 23.05 21.00 23.58Q20.64 24.11 20.06 24.41Q19.48 24.71 18.77 24.71L18.77 24.71Q18.26 24.71 17.80 24.56Q17.33 24.41 17.04 24.09Q16.75 23.77 16.75 23.23L16.75 23.23Q16.75 23.02 16.87 22.78Q17 22.55 17.33 22.55L17.33 22.55Q17.69 22.55 17.84 22.84Q17.99 23.14 17.99 23.50L17.99 23.50Q17.99 23.73 17.95 23.92Q17.91 24.11 17.89 24.27Z"/></g>
  <circle cx="27.5" cy="7" r="1.5" fill="#89BBdf"/>
</svg>