<svg xmlns="http://www.w3.org/2000/svg" viewBox="0 0 200 200">
  <rect width="200" height="200" rx="36" fill="#fafcfe"/>
  <g fill="#1a1a1a"><path d="M94.67 135L94.67 135L94.67 132.70Q98.35 132.47 100.19 131.78Q102.03 131.09 102.66 129.02Q103.30 126.95 103.30 122.81L103.30 122.81L103.30 65.77Q103.30 61.52 102.66 59.50Q102.03 57.49 100.13 56.74Q98.23 55.99 94.67 55.88L94.67 55.88L94.67 53.58Q97.78 53.69 102.78 53.81Q107.78 53.92 112.73 53.92L112.73 53.92Q118.02 53.92 122.67 53.81Q127.33 53.69 130.20 53.58L130.20 53.58L130.20 55.88Q126.53 55.99 124.63 56.74Q122.73 57.49 122.16 59.50Q121.58 61.52 121.58 65.77L121.58 65.77L121.58 122.81Q121.58 126.95 122.21 129.02Q122.84 131.09 124.69 131.78Q126.53 132.47 130.20 132.70L130.20 132.70L130.20 135Q127.33 134.77 122.67 134.71Q118.02 134.66 112.73 134.66L112.73 134.66Q107.78 134.66 102.78 134.71Q97.78 134.77 94.67 135ZM45.91 135L45.91 135L45.91 132.70Q49.59 132.47 51.43 131.78Q53.27 131.09 53.90 129.02Q54.53 126.95 54.53 122.81L54.53 122.81L54.53 65.77Q54.53 61.52 53.90 59.50Q53.27 57.49 51.37 56.74Q49.48 55.99 45.91 55.88L45.91 55.88L45.91 53.58Q48.90 53.69 53.67 53.81Q58.45 53.92 64.08 53.92L64.08 53.92Q68.91 53.92 73.63 53.81Q78.34 53.69 81.44 53.58L81.44 53.58L81.44 55.88Q77.77 55.99 75.87 56.74Q73.97 57.49 73.40 59.50Q72.82 61.52 72.82 65.77L72.82 65.77L72.82 122.81Q72.82 126.95 73.45 129.02Q74.09 131.09 75.93 131.78Q77.77 132.47 81.44 132.70L81.44 132.70L81.44 135Q78.34 134.77 73.63 134.71Q68.91 134.66 64.08 134.66L64.08 134.66Q58.45 134.66 53.67 134.71Q48.90 134.77 45.91 135ZM110.77 95.21L65.34 95.21L65.34 92.91L110.77 92.91L110.77 95.21Z"/></g>
  <g fill="#89BBdf"><path d="M120.31 140.65L120.31 140.65Q121.03 141.01 121.89 141.24Q122.74 141.46 124.45 141.46L124.45 141.46Q128.41 141.46 130.97 139.07Q133.54 136.69 133.54 132.19L133.54 132.19Q133.54 129.40 132.50 126.66Q131.47 123.91 128.86 120.31L128.86 120.31Q126.79 117.43 124.90 114.42Q123.01 111.40 123.01 107.26L123.01 107.26Q123.01 103.39 124.90 100.56Q126.79 97.72 129.99 96.10Q133.18 94.48 136.96 94.48L136.96 94.48Q139.57 94.48 142.09 95.11Q144.61 95.74 146.28 97.41Q147.94 99.07 147.94 102.31L147.94 102.31Q147.94 103.12 147.53 104.25Q147.13 105.37 146.23 106.18Q145.33 106.99 143.80 106.99L143.80 106.99Q142.36 106.99 141.28 105.95Q140.20 104.92 140.20 103.21L140.20 103.21Q140.20 101.59 140.88 100.11Q141.55 98.62 142.72 97.18L142.72 97.18Q141.01 96.10 138.22 96.10L138.22 96.10Q134.89 96.10 132.64 98.35Q130.39 100.60 130.39 104.65L130.39 104.65Q130.39 106.72 131.02 108.30Q131.65 109.87 132.87 111.58Q134.08 113.29 135.79 115.90L135.79 115.90Q138.04 119.32 139.57 122.47Q141.10 125.62 141.10 129.13L141.10 129.13Q141.10 133.27 138.99 136.47Q136.87 139.66 133.36 141.46Q129.85 143.26 125.62 143.26L125.62 143.26Q122.56 143.26 119.77 142.36Q116.98 141.46 115.22 139.53Q113.47 137.59 113.47 134.35L113.47 134.35Q113.47 133.09 114.23 131.69Q115 130.30 116.98 130.30L116.98 130.30Q119.14 130.30 120.04 132.06Q120.94 133.81 120.94 135.97L120.94 135.97Q120.94 137.41 120.72 138.53Q120.49 139.66 120.31 140.65Z"/></g>
  <circle cx="168" cy="48" r="6" fill="#89BBdf"/>
</svg>