<svg xmlns="http://www.w3.org/2000/svg" width="2500" height="2500" viewBox="0 0 192.76 192.76"><g fill-rule="evenodd" clip-rule="evenodd"><path fill="#fff" d="M0 0h192.76v192.76H0z"/><path fill="#4f4d68" d="m56.04 74.9.76.95a9.3 9.3 0 0 1 1.14 5.44 9 9 0 0 1-1.39 3.35 8 8 0 0 1-2.09 2.21c-.5.32-1.01.57-1.45.7l-1.27-.06a1 1 0 0 1-.5-.89q.01-.47.31-.76c.2-.19.63-.31 1.2-.31.45 0 .89-.26 1.46-.7a7 7 0 0 0 1.45-1.64q.84-1.53.83-3.23a7 7 0 0 0-.95-3.1l-.82-1.08-.76-.76q-2.45-1.9-6.71-2.21-3.5-.28-6.52.57c-6.2 1.58-10 4.43-11.45 8.41a5 5 0 0 0-.13 3.48q.39.87 1.33 1.84h.07l.19.19c.57.44.82.88.88 1.33q-.02.87-1.07 1.26-.67.29-2.85.95l-1.52.44q-6.1 1.9-9.8 5.89l-.57.5-.57.76a21 21 0 0 0-4.12 7.22 14 14 0 0 0-.7 5.18c.07 1.71.58 3.23 1.4 4.62a11 11 0 0 0 3.35 3.67 16 16 0 0 0 4.94 2.09c2.09.44 4.68.38 7.78-.06 3.48-.57 6.4-1.52 8.6-2.98l1.02-.63 1.07-.76a41 41 0 0 0 3.74-3.73 15 15 0 0 0 2.78-4.5 8 8 0 0 0 .38-3.66 2.6 2.6 0 0 0-.82-1.52l-.13-.2q-.27-.18-.63-.94c0-.32.06-.5.25-.7.19-.18.38-.31.7-.31s.7.19 1 .5l.07.07c.44.44.76 1.14 1.01 1.96.32 1.07.32 2.21.13 3.35q-.95 5.32-6.83 10.25l-.5.38-.52.5-1.2.77a24 24 0 0 1-8.22 3.42c-3.23.69-6.46.82-9.8.44a24 24 0 0 1-7.92-2.22 15 15 0 0 1-5.31-4.62l-1.2-1.83c-.45-.7-.76-1.65-1.08-2.72-.57-2.22-.44-4.5.38-6.7q.48-1.26 1.9-3.36a30 30 0 0 1 4.55-4.94l.64-.5.7-.51q5.59-4 15.74-6.2 1.63-.39 1.65-.7 0-.17-.76-.44h-.12c-3.23-.95-4.88-2.6-4.94-4.8v-.77c0-.95.32-1.96 1.01-2.9a9.5 9.5 0 0 1 2.85-2.92c2.72-2.15 6.39-3.73 10.88-4.68 7.53-1.58 13.03-.89 16.45 2.21z"/><path fill="#4f4d68" d="M67.3 72.75a9 9 0 0 0-2.33-.83 11 11 0 0 0-4.37.13q-2.1.5-5.13 2.22l-1.51.75a33 33 0 0 0-5.26 3.8 33 33 0 0 0-4.55 4.75q-2.48 2.75-5.63 8.73a92 92 0 0 0-3.04 6.13l-8.73.38c-3.99-.12-7.47-.7-10.31-1.64l-1.96-.83-1.77-.88a25 25 0 0 1-5.82-4.62l-.57-.76a7.4 7.4 0 0 1-1.14-4.5c.06-.69.25-1.57.7-2.59l.88-1.9.13-.25q1.96-3.6 6.51-6.83a41 41 0 0 1 10.7-5.44l1.2-.32 1.77-.25 2.78.06q.48-.07.76-.25c.19-.19.25-.32.25-.5-.06-.96-.63-1.46-1.83-1.46-1.2-.06-2.66.25-4.3.82-1.08.32-2.53.89-4.24 1.7a34 34 0 0 0-7.53 4.12c-2.85 1.96-4.87 3.86-6.2 5.76a17 17 0 0 0-1.77 3.1l-.89 2.47-.38 1.96c-.44 2.72.57 5.12 3.04 7.09a35 35 0 0 0 4.55 3.6l1.33.82 2.66 1.08c2.34.95 5.19 1.52 8.6 1.83q5.06.48 10.95-.19a73 73 0 0 1-2.85 5.82 25 25 0 0 1-3.8 5.13 31 31 0 0 0-4.55-2.6 9 9 0 0 0-3.35-.75q-2.01.02-3.36 1.07a3.1 3.1 0 0 0-1.33 2.53c0 1.08.45 1.96 1.33 2.72q1.6 1.33 4.62 1.33 3.81-.02 6.96-2.21a68 68 0 0 0 8.1 5.06l.38.32 1.08.57q7.86 4.35 15.05 3.6a18.8 18.8 0 0 0 11.84-5.88l2.34-2.34v-2.6l-2.47 2.28a23.4 23.4 0 0 1-12.72 4.81q-5.22.38-11.77-1.52l-1.77-.57a44 44 0 0 1-8.67-4.74 30 30 0 0 0 5.45-5.76 56 56 0 0 0 4.49-6.96 52 52 0 0 0 13.28-4.87 55 55 0 0 0 11.84-8.3l1.13-1 1.2-1.2v-4.56a17 17 0 0 1-2.46 3.6q-3.04 3.8-8.54 7.6a48 48 0 0 1-15.44 6.96 95 95 0 0 1 8.29-13.42 55 55 0 0 1 6.45-7.27l.32-.32.95-.7c2.9-2.2 5.56-3.03 8.03-2.33a4.4 4.4 0 0 1 2.4 1.51zm-47 36.38q2.26 0 6.7 2.85a9.4 9.4 0 0 1-5.56 1.77c-1.71 0-2.91-.38-3.74-1.2a1.8 1.8 0 0 1-.57-1.33q0-.67.57-1.14c.57-.64 1.4-.95 2.6-.95"/><path fill="#4f4d68" d="M68.89 130.51H2.83V64.4H68.9zm-3.92-3.98H6.76V68.32h58.2zm75.73-60.55 5.57.12 5.44-.06-.13.89v.88l-2.53-.19-4.62-.12h-1.26l-.07 5.82v2.15l.07.06 7.71-.12-.06.82.06.82-5.7-.25-2.01.06h-.07l.26 9.36.06.07h1.01l7.47-.5-.06.88v.94l-11.58.07q.27-2.54.25-4.24l.13-6.7q-.12-9.51-.32-10.76zm-4.18.95.07.88-2.6-.19-4.62-.12h-1.26l-.07 5.82v2.15l.07.06 7.72-.12-.07.82.07.82-5.7-.25-2.02.06h-.07l.26 9.36.06.07h1.01l7.47-.51-.06.89v.94l-11.58.07q.27-2.55.25-4.24l.13-6.7q-.12-9.51-.32-10.76h.38l5.57.12 5.44-.06zm0-4.69h-11.39v1.33h11.4zm1.84 32.78-.26.06-.12 15.44.06 1.58.13 1.84 3.67.12 3.54-.19q1.53-.3 2.4-.7.67-.4 1.52-1.07l.64-.57c1.83-1.83 2.72-4.3 2.65-7.53-.06-3.73-1.14-6.32-3.1-7.78a8 8 0 0 0-2.4-1.2l-3.8-.32zm-.76-1.27 6.83-.12 4.94.44q1.7.47 3.23 1.9a10.4 10.4 0 0 1 3.22 7.65q.01 2.78-1.2 5.2a14 14 0 0 1-2.4 3.28l-.7.63a10 10 0 0 1-3.86 1.97q-2.3.57-6.39.5l-5.57.06h-.5c.06-.19.12-1.2.19-2.9l.19-8.86q-.1-4.54-.2-6.33l-.18-3.54zm21.64-.25 5.5.19 5.44-.06-.13.88v.82l-2.46-.12-4.68-.13h-1.27l-.06 5.82v2.1l.06.05 7.72-.12-.07.82.07.88-5.7-.25h-2.02l-.06.06.25 9.3.13.07 1 .06 7.41-.5-.06.82v.94l-11.58.13.25-3.16v-1.08l.13-6.77q-.1-9.41-.32-10.75zm22.2.13c2.4-.07 4.18.38 5.32 1.45.95.82 1.39 2.03 1.39 3.48s-.63 2.66-1.84 3.73c-1.2 1.08-2.9 1.77-5.06 2.22l.07.06 2.27 2.91 5.5 6.96.83.95h-3.42l-6.45-8.42-1.96-2.21h-1.27a39 39 0 0 0 0 3.86l.32 6.64-1.7-.13-1.46.13.12-3.29q.1-2.76.2-8.48l-.14-6.58-.18-3.29 2.27.13zm-4.62 1.45v8.48l1.71.06 2.72-.19a10 10 0 0 0 1.71-.76 4 4 0 0 0 1.58-1.58c.45-.76.7-1.58.64-2.4q-.3-3.99-5.13-3.99c-1.64 0-2.72.13-3.16.32zM81.73 67.5h-1.2l-.06 5.82v2.15l.06.06 7.72-.13-.07.83.07.82-5.7-.25-2.02.06h-.06l.25 9.36.06.07h1.01l7.47-.51-.13.88.07.95-11.58.07q.27-2.55.25-4.24l.13-6.7c-.06-6.34-.2-9.94-.32-10.76h.38l5.57.12 5.44-.06-.13.89v.88l-2.53-.19zM79.2 93.63l1.58-.13c-.38 3.35-.5 6.58-.38 9.55q.02 6.38.13 9.05l.06 1.14.06.57 1.33.13 4.3-.13 3.3-.26-.07.9v.81l-3.35-.06a85 85 0 0 0-5.82 0l-2.72.06.19-4.23.12-6.52q-.01-4.09-.31-11.01zm12.97-10.06q2.17 3.33 5.38 3.35 2.18 0 3.6-1.52a4.8 4.8 0 0 0 1.33-3.42q-.02-1.61-1.07-2.65a9 9 0 0 0-3.42-1.9c-2.72-.95-4.5-2.09-5.25-3.42a5.3 5.3 0 0 1-.7-2.6 5.4 5.4 0 0 1 1.9-4.3 7.2 7.2 0 0 1 5-1.7c2.21.06 3.86.57 4.94 1.64l-.89 2.4c-.82-1.95-2.21-2.9-4.3-2.84q-2-.01-3.17 1.01a3.7 3.7 0 0 0-1.14 2.85q.1 2.57 2.47 3.73l2.91 1.14a9 9 0 0 1 3.86 2.22q1.22 1.34 1.2 3.35c0 1.96-.76 3.67-2.27 5a7.8 7.8 0 0 1-5.5 1.96 8.7 8.7 0 0 1-5.45-1.84zm26.45-16.01-2.98-.06h-.06l-.19 7.9-.06 4.37.25 7.91-1.64-.13-1.46.13c.19-2.09.32-4.75.32-7.85l-.07-8.79-.12-3.54-6.9.31.06-.88-.06-.89c.2.06 2.85.06 7.97.13h.95l7.72-.13-.13.82.13.95zm-17.15 25.3 1.58 3.87 3.93 8.85 2.65 6.01 1.71 3.67-1.64-.12-1.71.12-2.28-5.69-1.26-3.04-.07-.06h-8.16l-.06.06-1.2 2.91-1.02 2.66q-.77 1.99-1.07 3.23l-1.08-.13-1.14.06 1.33-3.03 8.73-19.36zm14.05.64-.26 6.7v4.56q-.08 4.08.51 5.32c.32.82.76 1.45 1.27 2.02a6.2 6.2 0 0 0 5.18 2.15 8.4 8.4 0 0 0 3.86-.89c.57-.31 1.14-.69 1.59-1.26.31-.44.63-.89.88-1.4.44-.81.7-1.7.89-2.65q.19-1.34.19-4.74v-2.91c-.07-1.71-.13-3.99-.32-6.9l1.08.19 1.14-.2q-.1.98-.2 6.4l-.06 3.29q-.09 3.13-.19 4.55c-.06.76-.25 1.59-.5 2.4-.2.7-.57 1.34-1.02 1.97l-.82.95c-1.58 1.7-3.86 2.6-6.9 2.6-1.45 0-2.71-.2-3.92-.58a7 7 0 0 1-2.9-1.58 6 6 0 0 1-1.2-1.4l-.51-1.07q-.5-1.43-.51-3.92v-4.62l-.06-2.9q-.02-1.52-.32-6.08l1.58.19zm1.14 26.89 1 8.92-.62-.06-.64.06-.06-1.77-.5-4.87-2.1 3.73-1.32 2.78h-.07L109 122.8l-.38 3.42-.25 3.1-.5-.06-.39.06 1.27-8.92h.19l3.67 6.9 3.86-6.9zm11.07.13c1.96-.07 2.9.63 2.9 2.08q0 1.43-1.13 2.1-.93.56-2.53.56h-.89l.13 4.05-.63-.06-.64.06.13-4.56-.13-4.23zm-23.85-15.25-1.97-4.68c-1-2.35-1.58-3.48-1.64-3.42l-.7 1.52-2.9 6.52.06.06zM98.8 122.1q-.87-1.41-2.78-1.4-1.82-.01-2.78 1.4c-.51.7-.76 1.58-.76 2.78q0 1.73.76 2.78.96 1.41 2.78 1.4 1.91.01 2.78-1.4.76-1.06.76-2.78c0-1.72-.25-2.09-.76-2.78m.76 6.13c-.82.83-2.02 1.2-3.54 1.2a5 5 0 0 1-3.54-1.2c-.82-.82-1.27-1.9-1.27-3.35s.45-2.53 1.27-3.35a5 5 0 0 1 3.54-1.2c1.52 0 2.72.37 3.54 1.2.89.82 1.33 1.9 1.33 3.35s-.44 2.53-1.33 3.35m26.51-3.48.7.07q2.66 0 2.66-2.09c0-1.2-.7-1.84-2.15-1.84l-1.14.13zm-40.87-3.92q-.18.56-.25 1.01h-.13a3.2 3.2 0 0 0-2.47-1.07q-1.61.02-2.65 1.26c-.57.7-.83 1.71-.83 2.91s.32 2.22.95 2.92q.86 1.04 2.47 1.13 1.52 0 2.85-1.13l.06.06-.19.76q-1.12.75-2.9.76-2.09.01-3.3-1.2c-1.2-1.21-1.26-1.9-1.26-3.3 0-1.45.5-2.65 1.45-3.47q1.24-1.14 3.54-1.14 1.62.02 2.66.5m92.37 0v.38l-3.29-.06-.12 2.53v.63h1.77l1.39-.06-.06.44.06.32-2.28-.13-.88.06v.2l.06 3.54 1.58-.07 1.84-.12v.82h-.07v-.06l-4.62.06.13-2.47v-1.01l.06-1.4-.12-3.92h4.55zm10.44.06-.38 1.08h-.12a1.6 1.6 0 0 0-.64-.82q-.47-.4-.95-.32a1.2 1.2 0 0 0-1.13.45 1.47 1.47 0 0 0 .06 2.28q.38.27 1.52.75 1.03.46 1.39.82a2 2 0 0 1 .57 1.46c0 .82-.32 1.45-.89 2.02a3 3 0 0 1-2.21.82 3.2 3.2 0 0 1-2.15-.75l.25-1.14h.13q.27.65.82 1.01.56.3 1.2.32a1.8 1.8 0 0 0 1.33-.51q.49-.5.5-1.27c.02-.77-.12-.88-.44-1.14a4 4 0 0 0-1.45-.76 4 4 0 0 1-1.65-1.07 2 2 0 0 1-.5-1.4c0-.75.31-1.39.88-1.83a3 3 0 0 1 1.96-.57 3.4 3.4 0 0 1 1.9.57m-31-.37-.25 8.92h-.2l-1.7-1.9-4.74-5.13-.07.07.06 6 .07.83-.44-.06-.51.06.13-1.58.12-2.98v-4.42h.2l6.45 6.83-.07-6.65zm8.67 0-.13 3.92c0 1.45 0 2.53.06 3.35l.07 1.52-.64-.06-.63.06.06-1.52-.06-7.27zm-26.38-.13h.25l3.8 8.92-.64-.06-.63.06-1.4-3.48h-3.28l-1.27 3.48-.44-.06-.44.06 3.92-8.67v-.12zm-.2 1.64-1.45 3.3h2.85l-.95-2.16z"/></g></svg>