<svg xmlns="http://www.w3.org/2000/svg" width="2500" height="2500" viewBox="0 0 192.76 192.76"><g fill-rule="evenodd" clip-rule="evenodd"><path fill="#fff" d="M0 0h192.76v192.76H0z"/><path fill="#fff" d="M96.65 183.47A87.18 87.18 0 1 0 9.45 96.29a87.2 87.2 0 0 0 87.19 87.18"/><path fill="#00362d" d="M18.12 96.24a78.29 78.29 0 1 1 156.57 0 78.29 78.29 0 0 1-156.57 0m78.28 53.32a53.33 53.33 0 1 0 0-106.65 53.33 53.33 0 0 0 0 106.65"/><path fill="#fff" d="M151.15 47.1c1.45-1.1-.62-2.37-.09-2.79.26-.2.4-.1.67.24.59.76.98 1.36 1.99 2.65 1 1.3 1.47 1.83 2.05 2.58.28.35.34.5.07.71-.54.42-1.23-1.91-2.68-.79l-11.08 8.58c-1.24.95-1.1 1.75-.27 2.83 2.61 3.36 6.7 3.2 9.32 2.18.42-.15.58-.16.7-.01s.03.28-.08.36c-.13.1-.32.25-.67.42l-5.58 2.87c-1.3-1.69-2.72-3.6-6.44-8.4-1-1.29-1.47-1.81-2.06-2.57-.27-.35-.33-.51-.06-.71.53-.42 1.23 1.91 2.68.79zm-18-3.46-4.6-3.04 5.84-4.2zm-.14.7-.66 3.82a6 6 0 0 1-.42 1.49c-.81 1.22-1.97-.49-2.35.08q-.17.3.19.52c.93.6 1.85 1.15 2.76 1.76.91.6 1.8 1.25 2.7 1.85.23.15.4.23.57-.02.33-.5-1.2-.56-.9-2.3l2.24-13.94c.64-3.9 1.14-4.65.84-4.84-.3-.2-.39.2-1.53.88-1.52.92-1.89.63-2.12.97-.18.27.09 1.07-.01 1.22-.13.18-1.08.77-8.32 5.8-1.64 1.15-3.2 1.85-4.12 1.96-1 .13-1.73-.68-2-.27q-.21.25.1.46c.83.55 1.59.98 2.35 1.48 1.54 1.03 2.06 1.43 2.54 1.75.25.16.36.24.53-.01.36-.55-1.9-1.25-.4-3.53.44-.66 1.18-1.13 2.95-2.48zm-22.57-12.8 1.85.46c3.17.8 4.86 2.48 4.07 5.6-.66 2.6-2.2 3.9-5.46 3.07-1.99-.5-2.5-1.15-2.19-2.37zm-4.97 6.34c-.45 1.77-2.44.36-2.6 1.03-.09.32.06.4.48.51.93.24 1.63.36 3.22.77 1.93.49 3.66.99 5.36 1.42 4.2 1.06 6.79 0 7.6-3.15.75-2.96-.82-5.13-5.96-6.52l.02-.06c3.51.7 6.57.32 7.3-2.54.64-2.54-1.14-4.97-5.6-6.1-1.37-.35-2.78-.65-4.16-1-1.59-.4-2.26-.63-3.19-.87-.42-.1-.6-.1-.67.22-.17.67 2.24.38 1.8 2.15zm7.1-14.66 1.99.5c2.48.64 3.77 2.35 3.11 4.91-.62 2.47-2.15 3.52-5.46 2.67l-1.59-.4zm-25.01-1.25 1.6-.13c2.59-.21 4.24.8 4.5 3.93.26 3.16-1.2 4.52-4.13 4.76l-1.26.1zM85.6 38.14c.15 1.83-2.18 1.14-2.13 1.82.03.33.2.37.63.34.95-.08 1.66-.2 3.3-.33 1.63-.13 2.34-.14 3.29-.22.44-.04.6-.1.56-.43-.05-.68-2.23.38-2.39-1.44l-.54-6.6.43-.03c2.07-.17 2.66.38 4.87 3.76l2.73 4.22 4.69-.33c.37-.04.54-.13.51-.38-.05-.68-1.94.4-3.3-1.83l-1.75-2.93c-1.59-2.64-2.82-2.97-5.47-3.05v-.06c3.9-.6 6.43-2.5 6.2-5.25-.2-2.34-2.47-4.68-7.78-4.24-1.06.1-2.12.23-3.59.36-1.63.13-2.34.13-3.3.21-.43.04-.58.1-.56.43.05.68 2.24-.38 2.4 1.45zM60.98 31.7c-.74-1.68-2.45.05-2.73-.57-.13-.3 0-.41.39-.6.87-.39 1.54-.63 3.04-1.3 5.5-2.47 7.33-3.35 9.12-4.16l3.29 4.13q.37.4.45.58.11.25-.1.34c-.3.13-.5-.53-2.5-1.72-2.5-1.49-4.8-.96-7.77.37l-.75.34 3.3 7.32.54-.24c2.15-.97 3.38-2.54 2.26-5.06-.17-.37-.1-.53.08-.6.2-.1.34-.04.5.33l3.36 7.45c.17.37.1.5-.1.59-.17.08-.33.05-.5-.32-1.18-2.61-3.19-2.76-5.33-1.8l-.55.25 2.92 6.48c.41.95 1.22 1.12 2.71.45 4.61-2.07 5.21-5.99 4.83-8.78-.05-.43-.03-.59.15-.67s.28.03.34.15q.1.2.24.76l1.49 6.1c-2.07.93-4.2 1.83-10.4 4.6-1.49.67-2.11 1.02-2.99 1.4-.4.18-.57.2-.7-.1-.28-.62 2.15-.75 1.4-2.42zM47.04 51.84l5.26 5.32c1.29 1.3 2.28-.9 2.76-.42.23.23.15.39-.16.7-.68.67-1.22 1.13-2.39 2.28s-1.64 1.69-2.32 2.36c-.3.3-.46.38-.69.15-.48-.49 1.75-1.46.46-2.76L39.72 49.1c-1.28-1.3-2.3.9-2.77.42-.22-.23-.15-.38.16-.7.68-.66 1.23-1.12 2.39-2.27 1.17-1.16 1.63-1.7 2.32-2.36.3-.3.46-.38.69-.15.49.48-1.75 1.45-.46 2.76l4.53 4.59 5.62-5.55-4.53-4.59c-1.29-1.3-2.29.91-2.77.42-.23-.22-.14-.38.17-.69.68-.67 1.22-1.13 2.38-2.28 1.17-1.15 1.64-1.69 2.32-2.36.3-.3.47-.38.7-.15.48.49-1.75 1.46-.46 2.76l10.23 10.38c1.29 1.3 2.29-.9 2.77-.42.23.23.16.38-.16.7-.68.66-1.23 1.12-2.39 2.27s-1.63 1.7-2.32 2.37c-.3.3-.46.37-.69.15-.48-.5 1.75-1.46.46-2.76l-5.25-5.33z"/><path fill="#00362d" d="M73.1 103.57c.64 0 2.4-1.15 1.92.59l1.12 1.73.06.03c.68.3 2.33-.75 1.86.93 2.08.97 3.05 3.86 5.29 2.9l1.6.76c1.28 3.28 3.05 3.66 3.85 4.63l.32.58 2.72.38v1.93l.8.39h.32l.8 1.92 1.13.39.48.58 1.12 1.34.8.97 1.44.77h.8l-.31.59 1.11 1.34 1.6.96V129l.33.58c.8.58.31 3.66 1.6 1.74l.64.96c.64 3.08 1.44 6.55 2.72 8.86-.63 2.12.97 2.89 1.93 3.28 1.6.2-.16 3.27 1.92 2.7l1.92 1.92-.32 1.73v.59l.8 1.73.64.58v3.08l.8 1.93v.96l1.6 2.7.8.96-1.27 11.95c-3.53-.96-5.29-4.43-7.7-8.29-6.89-6.55-13.13-15.22-19.22-20.81-9.93-9.83-19.54-19.65-31.4-24.85-1.12-1.35-3.04-2.32-4.64-3.28-2.4-2.12-5.13-4.24-7.37-5.97h-1.13a16 16 0 0 0-5.28-3.86h-.8c.15-.38-.17-.57-.48-.77h-1.14c.17-.58-.15-.77-.32-.96h-1.12c0-.39-.32-.77-.48-.97h-1.12v-.38c-4.16-2.12-7.68-5.4-11.53-8.86-1.6 1.34-2.73.57-4.17.96l2.24-2.7h.32l.81-.96h.8c.64-.58 1.28-.58 1.92-.58l1.12-.38h2.73l1.6-1.35h2.24c.96.2 2.4-.39 2.73.38h2.23q.98-2.02 1.93 0h.48c-.32-1.54 1.76-.96 1.92-.38.64 0 1.28 0 1.93.38l1.44.97h1.6c.16-1.9 2.42-.46 2.25.38l1.12.58c.48-.58 2.08-1.16 1.92.39.64 0 1.77-.2 1.6.96.64-.39 1.6-.58 1.6.39.8.19 2.08-1.35 2.56.57.8 0 1.92.2 1.92 1.35.65.2 1.3-.39 0 .39l3.53.96 1.13.97c1.28 0 2.88-.58 3.84.96.96-.2 2.4.19 2.4 1.34h1.13z"/><path fill="#004a3d" d="M49.11 120.91a53.35 53.35 0 0 0 85.17 12.86 54 54 0 0 0 9.33-12.71l27.18-.36a78.33 78.33 0 0 1-148.7.2z"/><path fill="#fff" d="M158.57 123.29c-.24-.08-.27-.24-.22-.37.07-.23.29-.22.9-.1 3.32.62 7.05.34 8.19-3.08.86-2.6-.3-4.28-2.06-4.87-5.24-1.74-6.32 8.58-12.7 6.45-2.69-.9-4.14-4.15-3.15-7.1.77-2.3 2.1-2.84 2.44-3.86.25-.74-.7-.68-.52-1.18.06-.18.18-.2.47-.13 3.74.88 5.55 1.37 5.9 1.48q.36.15.26.41c-.07.2-.43.15-.73.13-3.25-.1-6.23.45-7.2 3.38-.66 1.97.12 3.53 1.75 4.07 4.76 1.6 6.36-8.55 12.66-6.45 2.74.9 4.86 3.8 3.45 8.03-.63 1.9-2.2 3.3-2.41 3.97-.37 1.06.65.97.48 1.46-.03.1-.13.22-.39.13zm-18.61 12.4c-1.47-1.08-2.12 1.26-2.66.86-.27-.2-.21-.36.05-.71.57-.77 1.03-1.3 2-2.63 3.6-4.86 4.75-6.5 5.92-8.1l4.88 2q.52.16.67.28.24.15.1.34c-.2.26-.7-.21-3.03-.27-2.9-.07-4.66 1.52-6.6 4.13l-.48.66 6.46 4.77.36-.48c1.4-1.9 1.7-3.87-.52-5.51-.32-.24-.33-.42-.22-.57.13-.18.28-.2.61.04l6.57 4.86c.33.24.33.38.2.55-.11.16-.26.22-.59-.02-2.3-1.71-4.13-.85-5.52 1.04l-.36.48 5.7 4.22c.84.62 1.63.39 2.6-.93 3-4.07 1.6-7.78-.1-10.03-.25-.35-.3-.5-.2-.65.12-.15.27-.12.37-.04.14.1.33.25.6.54l4.27 4.6c-1.34 1.81-2.77 3.65-6.8 9.1-.97 1.32-1.34 1.92-1.91 2.7-.26.34-.4.44-.67.25-.55-.41 1.5-1.71.03-2.8zm-2.14 9.54c.15.24.24.47.09.57-.23.15-.36-.05-.8-.46-2.12-2.13-6.1-3.96-9.23-1.9-2.67 1.77-3.19 5.74.12 10.76 3.39 5.13 7.17 6.1 9.88 4.31 2.62-1.72 3.38-5.98 2.03-9.12-.15-.39-.23-.6 0-.75.15-.1.33.07.48.3l3.72 5.63c.15.23.24.46-.03.64-.55.36-.86-1-1.82-.37-.86.57-1.56 2.6-4.34 4.44-4.15 2.73-9.9 1.48-12.93-3.1-3.05-4.63-1.26-10.79 2.44-13.22 2.78-1.84 5.04-1.4 5.86-1.93.82-.54-.23-1.39.27-1.72.2-.14.4.04.54.27zm-22.36 9.3c-.5-2.27-1.73-3.14-2.82-3.24-.74-.06-1.04.12-1.12-.25-.05-.24.1-.33.52-.42.96-.22 1.7-.33 2.81-.58 1.12-.25 1.83-.46 2.79-.67.43-.1.6-.08.65.16.08.37-.26.33-.91.7-.94.55-1.68 1.86-1.18 4.13l3.07 13.73c.04.19-.03.4-.24.44a.7.7 0 0 1-.6-.14l-14.65-12.52-.05.01 2.34 10.48c.5 2.27 1.73 3.14 2.81 3.24.75.05 1.04-.12 1.13.25.05.24-.1.32-.53.42-.96.22-1.69.32-2.8.57-1.13.25-1.83.47-2.8.68-.42.1-.6.08-.65-.16-.08-.37.26-.34.9-.7.95-.55 1.69-1.87 1.19-4.13l-2.55-11.41c-2.04-1.87-3.3-.78-3.41-1.28-.07-.3.1-.42.5-.5.64-.15 1.19-.22 2.03-.4l2.49-.56 13.05 11.25.06-.01zm-32.22-.99c.23-1.8-2.13-1.22-2.05-1.9.04-.33.2-.36.64-.31.95.12 1.65.26 3.27.47 6 .74 8 .94 9.96 1.18l.67 5.24q.1.53.08.72-.03.28-.25.25c-.33-.05-.17-.71-1.25-2.77-1.36-2.57-3.61-3.32-6.83-3.72l-.82-.1-1 7.97.6.07c2.33.29 4.2-.4 4.55-3.15.06-.4.2-.5.4-.47.2.02.3.15.25.55l-1.01 8.1c-.05.41-.17.48-.39.45-.19-.02-.3-.12-.26-.53.35-2.84-1.29-4.01-3.62-4.3l-.6-.08-.88 7.05c-.12 1.03.46 1.6 2.09 1.8 5.01.63 7.57-2.41 8.69-5 .2-.38.29-.5.47-.48.2.02.23.16.21.3a3 3 0 0 1-.17.77l-1.9 5.99c-2.26-.28-4.56-.63-11.28-1.47-1.62-.2-2.33-.23-3.28-.35-.43-.06-.6-.13-.55-.46.08-.68 2.23.47 2.45-1.34zm-20.99 1.28c.1-.23.27-.24.4-.19.21.1.17.33-.01.9-1.02 3.24-1.17 6.97 2.1 8.51 2.46 1.16 4.27.21 5.06-1.47 2.36-5-7.77-7.29-4.9-13.36 1.2-2.57 4.6-3.63 7.43-2.3 2.19 1.03 2.56 2.42 3.53 2.87.71.34.77-.6 1.24-.38.17.08.17.2.07.49-1.3 3.6-2.02 5.36-2.17 5.68-.11.24-.29.29-.43.22-.2-.1-.1-.44-.04-.75.48-3.2.28-6.24-2.51-7.55-1.88-.89-3.51-.3-4.25 1.26-2.14 4.54 7.75 7.33 4.92 13.33-1.23 2.63-4.36 4.38-8.39 2.48-1.8-.85-3.01-2.56-3.66-2.86-1.01-.48-1.04.53-1.5.31-.1-.05-.2-.15-.09-.4zm-15.3-12.21c.17-.19.32-.16.42-.07.19.17.08.37-.25.87-1.9 2.81-3.12 6.35-.43 8.75 2.03 1.82 4.04 1.42 5.28.03 3.68-4.1-5.36-9.2-.88-14.2 1.9-2.12 5.45-2.16 7.77-.09 1.8 1.63 1.77 3.06 2.57 3.77.59.52.9-.36 1.3-.02.13.13.1.25-.08.5a109 109 0 0 1-3.7 4.82q-.28.28-.48.08c-.16-.14.04-.44.18-.72 1.38-2.94 2.05-5.9-.25-7.96-1.55-1.38-3.29-1.29-4.43 0-3.35 3.75 5.33 9.24.9 14.19-1.93 2.15-5.42 2.95-8.74-.02-1.49-1.33-2.16-3.32-2.69-3.8-.83-.75-1.15.22-1.54-.13-.07-.07-.14-.2.04-.4zm-4.05-21.99c1.58-.92-.32-2.43.28-2.78.27-.16.4-.05.62.33.49.82.8 1.46 1.63 2.88 3.04 5.21 4.1 6.93 5.1 8.62l-3.75 3.71q-.36.4-.53.5-.23.16-.35-.05c-.16-.28.47-.55 1.45-2.68 1.21-2.63.44-4.87-1.2-7.68l-.42-.7-6.93 4.04.3.52c1.18 2.03 2.88 3.1 5.27 1.7.35-.2.52-.14.61.03.11.19.07.34-.28.54l-7.06 4.12c-.35.2-.48.15-.59-.03s-.1-.33.26-.53c2.48-1.45 2.4-3.47 1.22-5.5l-.3-.51-6.13 3.58c-.9.52-.99 1.34-.17 2.75 2.55 4.36 6.52 4.55 9.25 3.87.43-.09.58-.09.69.08.09.16 0 .28-.12.35q-.2.13-.73.33l-5.9 2.12c-1.15-1.96-2.27-4-5.68-9.84-.83-1.41-1.24-2-1.72-2.83-.22-.38-.26-.55.02-.7.6-.35.98 2.05 2.56 1.12z"/><path fill="#9d2554" d="M8.5 96.38a87.87 87.87 0 1 1 87.88 87.87A87.87 87.87 0 0 1 8.5 96.38m87.88 82.24a82.24 82.24 0 1 0 0-164.48 82.24 82.24 0 0 0 0 164.48"/><path fill="#00362d" d="M118.43 144.81v-.38l.81-1.93.32-1.93c.15-2.5.96-5.78 1.92-7.32v-.38l.81-2.32.3-.96c-.3-2.12 0-4.24 2.42-5.59-1.6-1.92.96-3.08 1.44-5.01h.48v-2.31c.31 0 .48-.2.64-.58v-1.35c.48.2.64-.19.8-.38v-1.55c1.28-.57.8-2.88 2.73-4.04.48-3.28 2.56-5.59 3.84-8.29.32-1.34.32-2.5 1.92-3.27l.8-1.36c.48-1.53 1.45-2.3 2.25-3.26 1.6-.98.15-3.67 2.4-3.67l1.92-.58.32-2.3.8-.39.32 1.92V84.7l.8-.96c-.15-.96.95-.77 1.91.56l.01.04-.32 2.29.65.96-.65 2.7v1.92l-.48 2.32v.38l-.8 2.32v2.31l-.64 2.3v2.7c-1.43 0-.64 1.93-2.4 2.9l.8 1.73-.32 2.32c0 1.15-.64 1.92-.48 3.27-.64-.19-.8.77-.8 1.35v1.35c-1.45.58-.17 3.66-1.45 4.24v.39l-.8 1.92v.4l-.8.95-.79 2.31-.3.92a53.6 53.6 0 0 1-20.38 16.23m20.35-20.42 1.93-.39-1.93-4.24c.33 2.12 1.44 4.24 0 4.63m3.84-24.86a6 6 0 0 1 .58-.86c-.4.04-.64.2-.58.86"/><path fill="#00362d" d="m109.62 142.88-.48 1.55c-.96-.4-2.56-1.16-1.92-3.28h.8l.8-1.93.8-1.35.64-1.92.49-1.35.32-2.31-1.45-2.31v-1.36l-1.6-2.69-.8-1.93-.32-.96c.48-.58.48-1.93 0-2.7l1.44 2.7c.8.58.8 1.35.8 1.93l.8 3.28 1.13-2.9.48-2.31v-.39c-.6.3-1.11-.17-.93-1-.36-.63-.36-1.26-.36-1.89l.49-3.08v-1.92l-.81-1.93v-.78a3.1 3.1 0 0 1 0-2.89v-.38l-.32-.96v-.97l-.48-1.35.48-.39-.8-2.88v-.78l-.48-1.54v-1.34a27 27 0 0 1-4.49-10.99c-1.12-1.92-1.44-4.24-2.4-6.16l-.32-2.32.31-.77h4.34l.64-.96 2.4.39.8-.39 1.45-.96v-.96l1.92-.97.48-.38c.48-.77 1.92-.2 1.44-1.93h.48l.32.58c1.43-.77.48 1.15.8 1.73l-.48 2.31a7.6 7.6 0 0 0 0 4.63v.96a3 3 0 0 0 0 2.9v.76l.48 2.31c1.45-.58.48 1.54-.48 2.32l.48 1.53-.48 1.36v1.73l-.32 2.31-.32 2.31.32 2.32-.32 5.2v3.66h1.12l1.12-1.93.8 1.93v2.7l.33 1.34c1.44-.57.48 1.55-.33 2.32v3.85c-.95-.2-.8.97-1.12 1.74v3.27l-.48 3.27v.97l.48 2.31-.48 2.3v.4c.65.2 1.13 1.92.48 2.7l.32 2.31 1.61 1.92-.8 1.94v.38a53 53 0 0 1-5.77 2.22 3 3 0 0 1 .32-.87v-3.28c-1.12-.97-1.12-2.12-.8-3.08l-.32-2.32c-.32.78-.8.78-1.12 2.32l-.81 1.73zm3.37 0 1.12 2.9v-3.67zm-1.92-23.12-.45 1.9q.08-.42.45-.94zm-.32-8.67 1.12-.58-.8-1.73zm4.16-8.86-.8.97 1.28 4.23zm-.8.97c-.48.42-1.13.64-1.37 1.36.47-.42.9-.7 1.37-1.36m-11.06 24.08.8 1.34v1.36c1.29-.58 1.45 1.73.65 2.3l-.65-.95c-1.28 1.92-.8-1.16-1.6-1.74l-.32-.58v-1.73l-1.6-.96-1.11-1.34-.5-.59-1.43-.77-.8-.97-1.12-1.34-.48-.59-1.12-.38-.81-1.93h-.32l-.8-.38v-1.93l-2.72-.38-.32-.58c-.8-.97-2.57-1.35-3.85-4.63l-1.6-.77-.64-1.92-.8-1.93-.8-1.35-1.6-2.31v-.4c-.97.59-1.29-.96-1.13-1.92-.8-.95-1.92-1.54-1.44-2.7l-.8-1.34c.17-1.73-1.28-1.35-.8-3.27-.64-.78-1.6-.98-1.45-1.93l.65-1.35 1.6-1.35.32-2.31.48-.39c1.12.58 2.25-1.73 4.17-.58l.32 1.35V87l1.92.57 1.92-.57 1.29.57h1.43l.48-.57 2.57-1.74 1.92.77c.65.58 1.13.58 1.6-.38h2.24c1.29 1.35.17 3.85 1.6 5l.33 2.31v7.52h.8l-.31 2.31-.5.4v3.65l1.3 1.35.31.58c1.28-.19.8 1.73.32 2.31v2.7l.8 1.35-.32 2.31 1.12 1.93-.32 1.34.32 1.36V124l.8 2.32zm-18.1-19.46H88l-2.72-1.35zm-1.12-13.3.32-1.54-1.44 2.31zm8.49 2.31v.39l1.12.38h.8l-.47-1.34zm-3.2 10.6.48.4h1.44v-.11h-.06l-.48-.4-1.38-.47zm4.17.37c.08.93.1 1.76.96 1.94-.61-.52-.6-1.31-.96-1.94"/><path fill="#e0a337" d="M106.62 75.2h.02zm-25.2-20.56 3.2.57v-.96l-2.72-.58zm25.56 20.78h.01zm-.58-.99v-.06zm0 .03v-.03zm0 .06v-.04.03m.47.87h.01m5-1.68 1.6.39-.8-1.35h-.8zm-25-8.86-.8-.96zm0 .38v-.38zM76.46 85.66l.48-.38-1.12.38zm-7.69-22.74.8-3.08 1.12-1.54c0-1.54 1.6-.58 2.41-.77l.32-1.55c.47-.57 2.24-1.54 1.6 0h2.24l.8-.77.8-1.54h.32l2.72-2.31c-.63-1.93 2.4-3.47 2.25-.77.64 0 1.6-.39 1.92 1.35l.8 3.27.8.77.8-.38c.65-.96 1.28-.96 2.25.38l.32.58 1.6.97h.8c.48-.58.96-.58 1.45-.58l.8-1.35c1.28-1.35.95-3.09 1.92-3.66.8-.58 1.6-.58 2.4-.58v-1.35l-1.28-.38c-.64-.58-.64-.97.49-1.35l1.43.77.48.57.8-2.89c-.8-.38-.8-.77.32-1.34l1.6 1.34.64.97 2.4 1.35-1.11 1.92h.32l.8-1.92.32-.77c-.32-1.35.8-1.55 1.12-2.32l2.4.4h.8c.65-.2 2.4-1.16 1.93.37 0 2.7-1.28 2.5-1.28 1.55l-.32.38-.32 2.31.64 1.93.48 1.74 1.1 1.34h.82c.96-.77 2.55-1.15 3.04-.38l2.73.38h1.44c.65.2 1.93-.38 1.93.58 2.56.4 3.2 2.13 3.84 2.7.48.19 1.44-.39 1.28.58v3.66l-.48.96c0 .96.16 2.7-1.13 2.31l-1.12 1.35-1.92.97c-1.12.77-2.88 1.15-3.52.38l-.32-.38-1.93-.58-.47-.39-1.13.39-.8 1.93-.64.96v.77h-.48c.48 1.73-.96 1.16-1.44 1.93l-.48.38-1.93.97v.96l-1.44.96-.8.39-2.4-.39-.64.96h-2.4c-.81.78-1.45.78-2.25.78l.31 2.3c-.63 0-1.59-.19-1.43.97-.16 1.55-.48 2.12-1.29.58-.31 2.12-1.11.77-1.92 1.73v.97h-2.23c-.49.96-.97.96-1.61.38l-1.92-.77-2.57 1.74-.48.57h-1.44l-1.28-.57-1.93.57-1.92-.57v-.97l-.32-1.35c-1.92-1.15-3.04 1.16-4.16.58l-.48.4-.64.95.32 1.35-1.6 1.35-.65 1.35h-.79l-1.93.57-1.92-.57-1.13-.39-1.27.39-1.12-1.74H64.6v.4c-.64.95-1.28.95-1.93-.4h-.31l-.48-.58-1.44.97h-4.65c-1.6-.97-.32-1.16-.48-2.31l1.28-2.32-.8-1.73h.8l-.8-1.92v1.92c-.8-.77-.8-1.35 0-1.92l.8-1.36c.96-1.92 1.92-1.73 3.37-2.89l.48 1.54.32.39c0-.77.64-.96-.8-1.93v-1.73c-.32-1.35-1.6-1.93-1.13-3.27-.32-1.16.32-2.12 1.13-2.32 0-1.15.96-.96 1.6-.96.47-.19 1.43-1.35 2.72-.97l.64-.76h.48l1.45-.97c1.6-.2.95-1.16.8-1.92zm29.64-5.97c-2.4.62-2.5 1.25 0 0m-13.78-2.7c.96.58 1.28-.97 1.12-1.93h-.8zm38.77 5.59-1.6.77c.55.16 1.56-.23 1.85.24zm-1.6.77a3 3 0 0 0 0-.9zm-17.95-2.31 1.13.57.32-.57-1.12-2.32-.33 1.55zm9.14-.77h-.8l-1.12 1.73.48.58h1.12l.8-.97zm-2.37-1.02c-.47.83-.28 1.84-.33 2.5zm-5.64-3.23-.8.97v.96zm1.58 21.82-.02-.03zm0 .02.02.02v-.01zm.42.3h-.01m.04 0h-.01zm-.5-1.85-.05.17zm-.06.23-.03.15zm-.03.19-.02.15zm0 .77v.03zm.02.09v.01m.03.09v.01m0 .01.01.01m.01.01v.01m.01.03.01.03V75m.02.04.01.03zm.06.11.01.01.01.02zm.02.03h.01m.04.05zm.01 0 .02.02zm.02.03zm.01 0 .02.02zm.03.03.02.02v-.01zm.04.03zm.01 0zm0 .01zm.02.01h.01m.01.01h.02zm.03.02zm.01 0h.01m.01 0 .01.01m.07.04h.02zm.02 0zm0 0h.01m.13.04h.03zm.05 0h.01m.01 0h.01m.01 0h.01m.03 0h.02zm.02 0zm0 0h.02zm.02 0h.01m.01 0h.01m-.32-2.68.01-.01m4.98-.01v-2.31h-.8zm-9.3 1.73v-2.7l-.64.97zM113 64.85l-.32 1.34h2.24v-1.72h-.8zm2.4-.96 1.12.96c.48-1.55-.8-2.31-.8-3.28zm-5.77-2.32c-.64 1.35-1.28 1.35-1.92 1.35.8.38 1.77-.38 1.92-1.35M78.86 66.2v2.32h.32c.32-.38.8-.38 1.12-.39zl.64-.96h-.64zm-3.52-.38h.48v-1.34zm7.5 3.57q0 .15-.13.48l2.24-.77zm-14.07-6.46h1.28v-.77zm4.33 1.93.32-2.7h-.8zm13.75-4.36.34.12c.65 1.54 2.24 1.35 2.4 0l-1.6-.77h-.32l-.48.77a1 1 0 0 0-.34-.12M75.82 85.66l-2.35-.59q.03.66-.05 1.55c.8-.96 1.6-.96 2.4-.96m7.53 0v-.97h-.64zm-.64-.97v-.96h-.8zm-13.94 4.63.8-4.63c-1.44.97-2.25 1.93-3.04 1.93v1.35l1.6 1.35zm-8.81-4.04.48-2.32h-.8l-1.13 1.35.32.38c.32.2 1.29-.38 1.13.59m27.71-1.94 1.13-.38h-1.6zm-8.48-13.87-.33.39h1.45z"/></g></svg>