<svg xmlns="http://www.w3.org/2000/svg" width="2500" height="2500" viewBox="0 0 192.76 192.76"><g fill-rule="evenodd" clip-rule="evenodd"><path fill="#fff" d="M0 0h192.76v192.76H0z"/><path d="M96.35 9.5c48.42 0 87.9 39.04 87.9 86.88s-39.48 86.87-87.9 86.87C48 183.25 8.5 144.22 8.5 96.38S48 9.5 96.35 9.5"/><path fill="#fff" d="M96.35 11.69c47.21 0 85.74 38.06 85.74 84.69s-38.53 84.69-85.74 84.69c-47.18 0-85.69-38.06-85.69-84.7s38.5-84.68 85.7-84.68"/><path d="M96.35 13.87c46.04 0 83.56 37.05 83.56 82.5 0 45.44-37.53 82.52-83.56 82.52-45.98 0-83.5-37.08-83.5-82.51 0-45.46 37.52-82.5 83.5-82.5"/><path fill="#fff" d="M96.35 16.03c44.83 0 81.38 36.1 81.38 80.35s-36.55 80.35-81.38 80.35c-44.77 0-81.32-36.1-81.32-80.35s36.55-80.35 81.32-80.35"/><path d="M115.92 20.65q1.65.4 3.29.9c1.3 1.98 3.58 5.82 4.36 9.86 1.1 5.8-.1 15.75-.28 16.96-.2 1.2-1.65 6.17 1.83 10.3 0 0 .48.76-.17 2.04-.65 1.3-1.86 5.72-2.2 9.23a19 19 0 0 1-2.04 7.17c-.65 1.1-1.2 2.59-.1 3.7 1.1 1.1 2.2 2.12.93 4.5-1.3 2.41-6.55 10.7-7 11.52-.48.83-1.76 2.38-.38 4.14s2.39 2.58 3.87 2.48 2.68.46 2.03 2.66c-.65 2.23-1.56 3.34-.1 4.62 1.48 1.3 2.5 1.58 4.06.17h2.69s1.1 0 .07-1.18c-1-1.2-.83-2.58-.18-3.6.66-1.01 2.59-.84 3.52-.63.9.17 2.55-.1 2.38-1.66-.18-1.58.38-1.3 1.3-1.76.9-.47 5.42-2.48 5.42-2.48s1.76-1 2.59-.48c.82.56 1.58.1.65-.97-.93-1.1-2.03-2.69-.18-4.34 1.83-1.66 3.31-2.04 1.66-3.04-1.66-1.03-2.3-3.04-.75-4.24 1.58-1.2 3.06-3.59 3.06-6.17s-1.3-6.92-2.96-8.96c-1.66-2.03-1-3.2-2.86-5.24-1.83-2.03-3.6-2.48-4.62-3.31-1-.83-3.48-1.68-2.76-4.24.75-2.58 2.49-4.34 5.9-6a20 20 0 0 0 6.27-4.89c.55-.65 2.13-.37 1.2.93a18 18 0 0 1-6 4.62c-2.2.9-5.79 3.58-6.26 5.69-.46 2.13 1.58 2.78 2.48 1.38.93-1.38 1.48-3.69 7.93-3.96 6.47-.28 13.1 2.23 18.36 5.64a96 96 0 0 1 6.75 4.84q.84 2.06 1.58 4.17c-1.7-1.58-6.37-5.77-11.3-8.56-6.16-3.51-10.68-4.89-15.47-4.79s-6.92 1.66-7.1 3.41c-.2 1.76.55 1.76 1.28.28.75-1.48 3.61-2.03 5.82-2.03s9.76 1.28 15.93 7c6.2 5.72 5.82 12.26 5.82 12.26s1.28 1.48 7.52 1.3q.23 1.06.43 2.11c-2.08-.12-5.5-.37-7.68-.92 0 0-1.75-.38-2.03-2.94-.27-2.58-2.58-8.85-6.37-11.71-3.76-2.86-9.3-5.72-13.9-5.72-4.61 0-4.06 1.3-4.34 1.93-.27.65.28 1.2 1.38.27 1.1-.9 5.07-1.28 9.31 1.93 4.24 3.24 16.78 14.68 16.23 28.5l-.38 2.94s0 1.2 1.2 1.58c1.06.32 4.45 1.35 7.91.93a52 52 0 0 1-.1 2.05c-1.73.08-5.75.13-8.9-1.07 0 0-2.41-1-1.86-3.02s1.58-7.57-2.2-14.57c-3.77-7-11.52-17.61-18.35-18.16 0 0-3.03.1-2.76 1.3.28 1.2 1.28.38 2.76.38s2.86.27 3.51.73c.63.45.28 1.48-1.02 1.1-1.28-.38-3.59-.45-2.76 1.2.83 1.66 2.76 5.35 3.23 6.9.45 1.58 1.28 5.35.18 7.65s-4.34 4.34-2.03 6.1c2.3 1.76 7.2 1.83 9.4 1.48 2.21-.38 1.66-1.68 1.28-3.14-.35-1.48-4.41-12.09-8-16.13 0 0-1.86-1.95-.65-2.13 1.2-.17 3.13 2.96 4.41 4.52 1.3 1.58 7.86 12.36 8.13 26.99.28 14.65-1.68 24.13-1.85 24.78s-.93 2.69 2.03 3.14c2.18.33 6.14.03 8.55-.38q-.5 1.08-1.03 2.16c-2.2.18-6.64.48-9.45.05-3.87-.55-2.86-2.1-2.31-4.31s2.3-10.34 2.3-16.06c0-5.7-.47-14.25-.75-15.8-.27-1.58-.62-1.76-1.83-1.68-1.2.1-2.13 0-1.93 1.75.18 1.76-.2 12.24-.83 17.14a104 104 0 0 1-7.2 24.6s-1.75 2.49 1.3 4.14c2.64 1.43 8.06 2.26 13.68 1.66a54 54 0 0 1-2.08 2.71c-2.66.02-9.53-.3-13.9-3.81 0 0-1.03-1.58-1.86-1.1-.82.44.2 2.1 1.03 2.93.73.75 1.26 2.73 11.27 6l-1.5 1.6c-3.24-.8-12.93-3.89-13.1-11.2 0 0-5.62-4.13-4.52-10.85l-1.18-1.03s-1.75 5.44 0 14.65c1.46 7.67 5.9 11.84 12.24 14.45q-.98.78-1.95 1.55c-2.51-1.17-8.16-4.41-10.49-10.83-3.03-8.38-2.3-17.96-1.65-22.96 0 0-3.04-3.03.27-5.52 0 0-.27-8.4-3.13-10.96-2.86-2.58-2.59-.1-2.04.63.56.75 2.31 2.13 2.31 4.51 0 2.41.28 8.48-.62 14.48-.93 6-2.97 19.37.45 27.47a17.3 17.3 0 0 0 7.14 8.43l-1.8 1.05c-2.13-1.53-6.22-5.34-8.2-13.17-2.76-10.86.27-22.57.27-22.57s.45-3.14-1 .1c-1.48 3.2-2.59 7-3.89 18.6-1.15 10.52-2.86 18.07-9.06 25.37q-1.61.36-3.3.65c1.6-1.8 4.98-5.92 7.4-10.98 3.4-7.2 4.33-22.96 5.33-27.95 1-4.97 2.76-9.76 5.9-13.17 0 0 .38-5.9-.55-8.76 0 0-5.72-.65-6.83 1.56-1.1 2.23.1 2.86 1.48 3.24 1.38.37.93 1.55.66 2.13-.28.55-.56 1.38-1.76 2.56-1.2 1.2-8.75 7.3-13.92 15.85-5.17 8.58-4.97 10.61-12.9 16.33-7.9 5.7-20.62 8.56-33.06 5.7-9.38-2.13-14.67-3.92-26.14-13.25a77.2 77.2 0 0 1-18.61-50.22c0-42.97 35.44-78.01 78.92-78.17 4.49.76 10.91 2.34 15.1 5.55 7.02 5.34 10.06 16.4 10.23 17.33.2.9 1.03 1.56 1.1-.93.11-2.38.44-11.41-6.61-19.51"/><path fill="#fff" d="m75.76 139.93 3.96-.4.68-3.94 1.63 3.66 3.94-.55-2.96 2.65 1.75 3.6-3.46-2.01-2.86 2.75.83-3.88zm-18.29-3.44 3.96-.43.7-3.91 1.61 3.64 3.97-.56-2.99 2.67 1.76 3.58-3.44-2-2.88 2.78.85-3.91zm-11.56-14.15 3.86 2.1 3.06-3.1-.8 4.31 3.91 1.96-4.34.55-.65 4.34-1.88-3.96-4.34.73 3.2-3.02zm18.89-4.79 4.34.63 1.78-4.02.75 4.34 4.36.46-3.88 2.03.9 4.31-3.14-3.08-3.81 2.2 1.96-3.94zm-8.3-16.76 5.29-1.7-.2-5.55 3.26 4.52 5.21-1.93-3.26 4.46 3.44 4.4-5.3-1.74-3.1 4.64v-5.57zM27 103.58l5.31-1.63-.12-5.55 3.2 4.52 5.25-1.83-3.34 4.44 3.36 4.44-5.26-1.8-3.16 4.58.1-5.57zM54.5 78.27l3.71-.35.68-3.67 1.48 3.44 3.71-.5-2.8 2.48 1.6 3.36-3.21-1.9-2.71 2.55.83-3.63zm-23.65-5.3 5.21 2.41 3.72-4.34-.68 5.7 5.3 2.18-5.63 1.13-.45 5.72-2.8-5.02-5.58 1.33 3.89-4.21zm71.31-21.52 5.47 1.76 3.19-4.77v5.75l5.52 1.55-5.45 1.76.23 5.74-3.39-4.64-5.37 1.98 3.36-4.64zm-30.5-1.98 2.96 1.93 2.66-2.33-.93 3.4 3.04 1.82-3.54.17-.78 3.44-1.25-3.29-3.52.3 2.74-2.2zM54 49.72l2.8 4.72L62.15 53l-3.64 4.14 2.98 4.61-5.04-2.16-3.46 4.27.5-5.47-5.11-1.98 5.34-1.2zm6.7-16.03 3.16 3.24 3.96-2.19-2.1 4.02 3.3 3.1-4.46-.75-1.93 4.1-.68-4.47-4.46-.58 4.03-2.03zm27.57-6.1 3.58 4.22 5-2.31-2.89 4.72 3.74 4.06-5.34-1.3-2.72 4.81-.42-5.52-5.42-1.08 5.12-2.1zm62.26 74.83s.07-1.22.9-1.22c.85 0 .38 2.13.3 3.66-.07 1.53-.98 16.1-7.5 30.35 0 0-.93 3.69-3.06 1.53-2.16-2.13-2.69-3.51-3.24-4.59-.52-1.08.18-1.68.86-1.45.7.22 1.68-.23 2.6-1.76s7.58-10.29 9.14-26.52"/><path fill="#fff" d="M146.98 102.3s.02-.83 1.1-.73.73.63.73 1.8-1.66 13.98-8.18 23.56c0 0-.98 2.46-2.83.56a31 31 0 0 1-3.82-4.77c-.85-1.3 0-2.13.9-2.46.93-.3 9.91-7.02 12.1-17.96"/><path fill="#fff" d="M132.78 108.4s-.96-1 .05-1.61c1-.6 2.56-1.1 2.56-1.1s.97-.4 1.48.8c.5 1.2 1.9 5.14 2.15 6.44.25 1.28 0 1.53-.6 2.14-.6.6-2.3 2.1-2.3 2.1s-1.34 1.08-1.64-1.1c-.3-2.2-.8-5.94-1.7-7.67m13.8-15.66s2.68.65 3.83.7c1.16.03 1.33.98 1.48 2.34.15 1.38.58 2.9-1.05 3.28-1.63.4-5.35.36-7.08-1.45-1.75-1.86-.55-2.71.25-3.16s2.06-1.33 2.56-1.7"/><path d="M125.43 81.98s-1.4-1.06-2.46-1.43c-1.06-.38-2.53-1.63-1.1-3.21s2.35-1.63 2.88-2.1c.5-.49 1.83-.49 2.78-.26.96.25 3.57.95 4.8 1.05 1.22.1 2.25.36 2.85.33a3.3 3.3 0 0 1 1.76.38c.43.22.8.6 1.48.62.7.05 1.13.83.43 1.1a8 8 0 0 1-2.71.48c-.88 0-2.39.18-2.76.3-.38.16-1.1.33-2.23.33-1.1 0-2.56-.15-2.97.23-.4.37-.72.5-.07.72.65.2 4.92 2.11 5.27 2.39s.48.5-.1 1.02c0 0 .82.56 1.18.78.37.25-.05.3-.53.3s-1.5.15-1.93.38c-.4.25-1.46 1.43-1.9 1.66-.43.2-1.61.6-1.14 1.5.48.88.73 2.13.05 2.2-.7.08-1.17.03-1.23-.64-.07-.68-1.3-1.63-.52-2.86.8-1.23.73-2.18.17-2.76-.55-.6-1.07-.83-1.43-.93s-.82.08-.57-1.58M124.4 97.2s-.65-.77.35-.52 1.68 1.33 1.9 2.18c.23.9.73 2.53 1.74 3.46 1 .93-.4.88-1.26.73-.88-.15-2.53-.17-3.23-.15-.73.03-1.38-.42-1.84-.73-.47-.27-1.73-.27-2.38 0-.65.3-1.65-.32-.73-1.1.96-.8 3.97-.6 4.7-.05.7.58 1.25.73 1.85.12.63-.62.93-1.37.58-2.08-.35-.7-1-1.2-1.68-1.86"/><path fill="#fff" d="M135.54 78.02s-.6-.1-.58-.43c.05-.33.78-.15 1 0 .2.12.05.63-.42.43m-1.81-.1s-.58.65-2 .17c-1.44-.45-2.22-.7-2.64-.27-.4.45-1.18.8-1.6.8-.4 0-.68.22-1.06.68s-.9.55-1.93.32c-1.06-.2-2.61-1.13-.93-1.98 1.65-.85 1.73-1.2 3-1.13 1.31.1 2 .25 2.94.23s1.94.22 2.64.32c.73.1 2.68-.02 1.58.85m-3.64 7.14c.23 0 .43.18.43.43a.44.44 0 0 1-.43.43.4.4 0 0 1-.42-.43.4.4 0 0 1 .42-.42m1.58-1.58-2.76-.45c-.92-.12-.85-.5-.8-.8.08-.33 1.68-.48 3.56 1.25"/><path d="M132.48 53.58c-.1.7-.86 1.56-.8 0 .04-1.6.7-3.43 1.57-4.66.9-1.26 2.04-4.12 1.99-5.37-.05-1.23.9-1.33 1-.15.1 1.2-.1 3.24-1.33 4.97-1.26 1.73-2.3 3.96-2.43 5.21m-4.14-4.16s.3-.9.85-.7 0 .95-.1 1.78c-.1.85-.25 5.06.3 6.32.55 1.23-.3 1.78-.75.83a11.4 11.4 0 0 1-.3-8.23"/><path d="M127.51 57.52s.5 1.13 0 1.23c-.53.1-.93.1-1.23-.83s-1.85-5.27-.1-12.11c1.6-6.38 1.43-10.26.7-12.52-.7-2.26.23-1.63 1.03-.1.83 1.53 1.33 6.47-.5 13.74-1.86 7.3.1 10.6.1 10.6m35.72-2.9a56 56 0 0 1 1.78 2.85c-2.26-.98-6.35-2.18-13.2-2.48 0 0-2.9-.3.1-.8 2.44-.4 6.5-.6 11.32.42m-8.68-11.17 1.7 1.88a9.9 9.9 0 0 1-5.24 6.57c-6.3 3.29-10.5 3.19-12.49 5.1-1.96 1.85-1.83.37-.4-.81 1.8-1.5 6.5-2.66 9.3-3.89 2.34-1.05 6.78-3.4 7.13-8.85m-11.69-10.29A86 86 0 0 1 145.3 35a9.4 9.4 0 0 1-1 5.84c-2.76 4.92-8.83 10.96-9.13 11.84-.3.9-1.35 2.1-.95 0 .4-2.08 3.4-6 5.51-8.28 1.79-1.96 4.34-6.85 3.14-11.24m-13.8-7.95q1.59.72 3.16 1.5c.96 2.04 1.88 4.62 1.88 6.98 0 4.9.1 7.9-1.47 12.8-1.6 4.91-1.91 9.1-1.41 10.2s-.8.7-1-.6.2-5.7 1.4-10.79c1.08-4.56 1.98-12.16-2.56-20.09M77.31 172.24a80 80 0 0 1-7.25-2.16c4.72 0 12.02-.65 19.14-3.76 11.8-5.17 19.02-16.64 21.43-25.52 0 0 .17-2.58 1.28-2.58s0 3.89-1.28 6.85c-1.18 2.66-8.06 23.03-33.32 27.17m27.42 1.85a77 77 0 0 1-4.81.38c3.8-2.03 9.65-5.97 12.74-12.5 5.3-11.18 5.09-21.92 6.87-29.95 0 0 1.78-7.24 4.84-9.8 3.06-2.54 2.19-.88.9 1.02s-3.96 5.85-5.34 18.6c-1.2 10.93-5.04 24.78-15.2 32.25"/><path d="M93.92 174.5a94 94 0 0 1-6.47-.46c3.74-.98 10.28-3.38 15.58-9.2 7.95-8.68 10.73-25.31 13.5-31.79 2.78-6.47.37 2.94-.56 5.9-.9 2.96-3.31 19.97-13.12 29.4a37 37 0 0 1-8.93 6.14"/><path fill="#fff" d="m134.48 103.4 5.15-2.4s1.27-.1 2.13 1.3 1.75 4.04 1.6 5.3-.45 1.52-1.2 2.58c-.75 1.05-1.8 2.7-2.18.6-.4-2.08-2.36-7.13-4.64-6.98-2.31.15-.86-.4-.86-.4m8.93-.8s-.65-1.35.7-1.55c1.33-.2 1.38.4 1.23 1.3s-.72 3.18-1.93.25"/></g></svg>